<?xml version="1.0" encoding="UTF-8" standalone="no"?><!DOCTYPE svg PUBLIC "-//W3C//DTD SVG 1.1//EN" "http://www.w3.org/Graphics/SVG/1.1/DTD/svg11.dtd"><svg width="100%" height="100%" viewBox="0 0 2307 1250" version="1.1" xmlns="http://www.w3.org/2000/svg" xmlns:xlink="http://www.w3.org/1999/xlink" xml:space="preserve" xmlns:serif="http://www.serif.com/" style="fill-rule:evenodd;clip-rule:evenodd;stroke-linejoin:round;stroke-miterlimit:2;"><rect id="Mesa-de-trabajo1" serif:id="Mesa de trabajo1" x="0" y="0" width="2306.92" height="1249.78" style="fill:none;"/><g id="Mesa-de-trabajo11" serif:id="Mesa de trabajo1"><path id="dientes" d="M1700.38,1162.34c7.154,0 13.587,3.975 16.783,10.375l15.909,31.805c0.583,1.17 1.712,1.87 3.012,1.87c1.167,0 2.617,-0.591 3.204,-2.258l11.875,-33.517c2.696,-7.591 9.659,-12.5 17.742,-12.5c6.358,0 12.033,3.055 15.575,8.375l19.692,29.613c0.875,1.312 2.125,1.512 2.787,1.512c1.371,0 2.933,-0.825 3.342,-2.662l7.666,-34.721c1.913,-8.675 9.484,-14.729 18.409,-14.729c5.491,-0 10.516,2.325 14.146,6.542l23.183,26.962c0.842,0.979 1.837,1.188 2.525,1.188c1.554,-0.005 3.225,-1.059 3.412,-3.075l3.338,-35.4c0.921,-9.709 8.987,-17.025 18.775,-17.025c4.667,-0 9,1.691 12.529,4.9l26.321,23.908c0.817,0.737 1.671,0.892 2.242,0.892c0.937,-0 1.845,-0.388 2.5,-1.063c0.437,-0.45 0.954,-1.237 0.92,-2.433l-1.033,-35.546c-0.15,-5.129 1.704,-9.95 5.225,-13.567c6.25,-6.437 16.879,-7.591 24.35,-2.312l29.058,20.491c1.455,1.025 3.434,0.717 4.555,-0.587c0.445,-0.521 0.941,-1.413 0.745,-2.692l-5.4,-35.15c-0.845,-5.504 0.667,-10.837 4.25,-15.012c5.655,-6.592 15.38,-8.538 23.155,-4.384l31.354,16.775c1.504,0.8 3.321,0.346 4.325,-0.975c0.371,-0.487 0.933,-1.52 0.533,-2.937l-9.675,-34.213c-1.617,-5.72 -0.504,-11.687 3.046,-16.383c4.979,-6.583 13.95,-9.242 21.762,-6.242l33.18,12.792c1.529,0.579 3.175,0.021 4.058,-1.312c0.371,-0.555 0.896,-1.705 0.283,-3.159l-13.808,-32.766c-2.479,-5.905 -1.888,-12.33 1.633,-17.634c4.388,-6.6 12.454,-9.8 20.209,-7.866l34.504,8.616c1.475,0.359 2.996,-0.291 3.758,-1.604c0.617,-1.067 0.617,-2.296 -0.008,-3.375l-17.725,-30.821c-3.375,-5.875 -3.371,-12.875 0.012,-18.729c3.8,-6.575 10.809,-10.217 18.529,-9.25l35.3,4.304c1.5,0.171 2.784,-0.546 3.442,-1.854c0.588,-1.171 0.463,-2.492 -0.325,-3.542l-21.383,-28.408c-4.3,-5.721 -4.992,-13.25 -1.8,-19.654c3.187,-6.404 9.608,-10.392 16.762,-10.4l35.559,-0.063c1.404,-0.004 2.57,-0.775 3.112,-2.066c0.546,-1.292 0.296,-2.663 -0.679,-3.675l-24.708,-25.567c-4.975,-5.146 -6.584,-12.533 -4.209,-19.279c2.379,-6.746 8.267,-11.492 15.363,-12.379l35.279,-4.438c1.392,-0.175 2.454,-1.079 2.837,-2.429c0.388,-1.354 -0.037,-2.679 -1.129,-3.558l-27.666,-22.342c-5.563,-4.496 -8.071,-11.625 -6.542,-18.617c1.533,-6.987 6.792,-12.42 13.725,-14.175l34.471,-8.733c1.358,-0.346 2.3,-1.379 2.512,-2.762c0.217,-1.388 -0.366,-2.659 -1.562,-3.405l-30.196,-18.77c-6.075,-3.775 -9.438,-10.546 -8.779,-17.667c0.662,-7.125 5.212,-13.158 11.875,-15.754l33.137,-12.904c1.304,-0.509 2.109,-1.646 2.154,-3.046c0.046,-1.404 -0.691,-2.596 -1.966,-3.184l-32.275,-14.916c-6.492,-3.004 -10.663,-9.309 -10.884,-16.454c-0.22,-7.155 3.555,-13.705 9.85,-17.1l31.3,-16.871c1.234,-0.671 1.892,-1.9 1.767,-3.296c-0.129,-1.396 -1.004,-2.488 -2.342,-2.917l-33.866,-10.837c-6.813,-2.179 -11.729,-7.925 -12.825,-14.992c-1.096,-7.071 1.841,-14.037 7.671,-18.179l28.987,-20.596c1.15,-0.808 1.654,-2.112 1.35,-3.483c-0.3,-1.371 -1.3,-2.342 -2.675,-2.6l-34.946,-6.596c-7.029,-1.329 -12.612,-6.425 -14.571,-13.308c-1.958,-6.88 0.105,-14.155 5.384,-18.984l26.237,-24c1.034,-0.941 1.375,-2.296 0.909,-3.621c-0.467,-1.325 -1.58,-2.166 -2.984,-2.258l-35.483,-2.242c-7.142,-0.454 -13.308,-4.829 -16.096,-11.42c-2.787,-6.588 -1.637,-14.059 3.013,-19.496l23.091,-27.05c0.875,-1.029 1.063,-2.379 0.5,-3.609c-0.571,-1.233 -1.712,-1.97 -3.05,-1.97l-35.725,2.133c-7.616,0.458 -14.141,-3.313 -17.658,-9.85c-3.321,-6.179 -2.996,-13.367 0.875,-19.225l19.587,-29.675c1.005,-1.525 0.45,-2.921 0.167,-3.45c-0.704,-1.313 -2.096,-2.025 -3.608,-1.742l-34.967,6.471c-7.687,1.425 -15.296,-2 -19.387,-8.592c-3.43,-5.533 -3.75,-12.337 -0.842,-18.195l15.796,-31.859c0.533,-1.075 0.483,-2.266 -0.142,-3.271c-0.817,-1.316 -2.4,-1.937 -3.917,-1.462l-33.904,10.721c-7.783,2.462 -16.325,-0.479 -21.004,-7.084c-3.537,-4.995 -4.4,-11.195 -2.358,-17.016l11.758,-33.554c0.504,-1.442 -0.042,-2.534 -0.412,-3.055c-0.942,-1.329 -2.671,-1.841 -4.196,-1.145l-32.329,14.804c-7.767,3.55 -17.196,1.221 -22.484,-5.342c-3.541,-4.396 -4.883,-10.121 -3.666,-15.704l7.545,-34.746c0.225,-1.025 -0.008,-2.029 -0.641,-2.821c-1.059,-1.304 -2.95,-1.7 -4.446,-0.779l-30.263,18.667c-7.62,4.7 -17.85,3.129 -23.783,-3.375c-3.554,-3.892 -5.246,-8.971 -4.762,-14.3l3.225,-35.413c0.112,-1.237 -0.396,-2.079 -0.842,-2.566c-1.163,-1.271 -3.246,-1.513 -4.65,-0.38l-27.746,22.242c-3.387,2.721 -7.417,4.154 -11.662,4.154c-8.967,0 -18.467,-6.8 -18.834,-18.183l-1.158,-35.542c-0.063,-2.054 -1.788,-3.283 -3.421,-3.283c-0.629,-0 -1.558,0.179 -2.387,1.033l-24.796,25.488c-3.579,3.671 -8.325,5.696 -13.359,5.696c-9.354,-0 -17.187,-6.675 -18.633,-15.875l-5.512,-35.125c-0.313,-1.971 -1.971,-2.867 -3.384,-2.867c-0.608,-0 -1.775,0.171 -2.662,1.346l-21.479,28.341c-3.58,4.725 -9.005,7.434 -14.884,7.434c-8.504,-0 -15.779,-5.467 -18.112,-13.604l-9.788,-34.184c-0.521,-1.812 -2.091,-2.454 -3.283,-2.454c-1.225,0 -2.279,0.613 -2.904,1.688l-17.829,30.762c-3.4,5.858 -9.463,9.354 -16.217,9.354c-7.671,0 -14.296,-4.375 -17.292,-11.421l-13.916,-32.72c-1.1,-2.58 -5.134,-2.58 -6.234,-0l-13.916,32.72c-2.996,7.046 -9.621,11.421 -17.292,11.421c-6.754,0 -12.817,-3.496 -16.217,-9.354l-17.829,-30.762c-0.625,-1.071 -1.683,-1.688 -2.908,-1.688c-1.192,0 -2.763,0.642 -3.284,2.454l-9.787,34.184c-2.329,8.137 -9.608,13.604 -18.108,13.604c-5.88,-0 -11.305,-2.709 -14.888,-7.434l-21.475,-28.345c-0.887,-1.171 -2.05,-1.342 -2.667,-1.342c-1.408,-0 -3.07,0.896 -3.379,2.867l-5.512,35.125c-1.446,9.2 -9.284,15.875 -18.634,15.875c-5.041,-0 -9.787,-2.025 -13.362,-5.696l-24.796,-25.488c-0.829,-0.854 -1.758,-1.033 -2.383,-1.033c-1.634,-0 -3.363,1.229 -3.429,3.287l-1.155,35.538c-0.366,11.383 -9.866,18.183 -18.833,18.183c-4.242,0 -8.275,-1.433 -11.662,-4.154l-27.746,-22.242c-1.413,-1.137 -3.475,-0.9 -4.646,0.38c-0.446,0.487 -0.954,1.329 -0.842,2.566l3.221,35.413c0.488,5.329 -1.204,10.408 -4.758,14.3c-5.934,6.504 -16.163,8.075 -23.784,3.375l-30.262,-18.667c-1.483,-0.921 -3.388,-0.525 -4.442,0.779c-0.641,0.796 -0.866,1.796 -0.646,2.821l7.546,34.746c1.213,5.583 -0.125,11.308 -3.671,15.708c-5.291,6.563 -14.716,8.896 -22.479,5.338l-32.333,-14.804c-1.525,-0.7 -3.254,-0.184 -4.192,1.145c-0.371,0.521 -0.916,1.613 -0.412,3.055l11.758,33.554c2.042,5.821 1.179,12.025 -2.362,17.016c-4.684,6.6 -13.213,9.55 -21.005,7.084l-33.904,-10.721c-1.525,-0.479 -3.083,0.133 -3.912,1.462c-0.621,1.005 -0.675,2.196 -0.142,3.271l15.792,31.859c2.908,5.858 2.591,12.662 -0.842,18.195c-4.087,6.596 -11.704,10.017 -19.387,8.592l-34.959,-6.471c-1.508,-0.287 -2.908,0.434 -3.612,1.742c-0.284,0.529 -0.842,1.925 0.166,3.45l19.592,29.675c3.867,5.858 4.196,13.046 0.871,19.225c-3.521,6.537 -10.188,10.312 -17.658,9.85l-35.492,-2.125l-0.025,-0c-1.558,-0 -2.692,0.733 -3.258,1.962c-0.567,1.23 -0.38,2.58 0.5,3.609l23.091,27.05c4.646,5.437 5.8,12.908 3.013,19.496c-2.788,6.587 -8.954,10.966 -16.096,11.42l-35.492,2.242c-1.4,0.092 -2.512,0.933 -2.979,2.258c-0.462,1.325 -0.121,2.675 0.913,3.621l26.233,24c5.279,4.829 7.342,12.1 5.387,18.984c-1.958,6.883 -7.545,11.979 -14.575,13.308l-34.941,6.596c-1.375,0.258 -2.379,1.229 -2.675,2.6c-0.304,1.371 0.2,2.675 1.341,3.483l28.988,20.596c5.833,4.142 8.775,11.108 7.675,18.179c-1.096,7.071 -6.008,12.813 -12.821,14.992l-33.867,10.837c-1.337,0.429 -2.212,1.521 -2.341,2.917c-0.129,1.396 0.533,2.625 1.766,3.296l31.296,16.871c6.296,3.395 10.075,9.945 9.854,17.095c-0.22,7.15 -4.391,13.455 -10.883,16.459l-32.279,14.916c-1.275,0.588 -2.008,1.775 -1.967,3.18c0.046,1.404 0.85,2.541 2.159,3.05l33.133,12.904c6.667,2.596 11.217,8.625 11.879,15.75c0.658,7.125 -2.704,13.896 -8.783,17.671l-30.196,18.775c-1.192,0.741 -1.775,2.012 -1.558,3.4c0.212,1.383 1.154,2.416 2.516,2.762l33.542,8.496c7.112,1.808 12.504,7.371 14.071,14.542c1.571,7.162 -1,14.475 -6.704,19.079l-26.925,21.75c-1.096,0.879 -1.517,2.208 -1.134,3.558c0.384,1.35 1.442,2.254 2.834,2.429l35.287,4.438c7.096,0.887 12.979,5.633 15.358,12.379c2.38,6.746 0.767,14.133 -4.204,19.279l-24.708,25.567c-0.975,1.012 -1.229,2.387 -0.683,3.671c0.545,1.295 1.712,2.066 3.116,2.07l35.55,0.063c7.159,0.008 13.584,3.996 16.771,10.4c3.188,6.404 2.496,13.933 -1.804,19.654l-21.379,28.408c-0.788,1.05 -0.913,2.371 -0.329,3.542c0.658,1.317 1.962,2.029 3.441,1.854l35.3,-4.304c7.742,-0.954 14.734,2.679 18.534,9.254c3.383,5.85 3.387,12.854 0.008,18.729l-17.725,30.817c-0.621,1.079 -0.621,2.308 -0.008,3.375c0.766,1.313 2.27,1.975 3.762,1.604l34.504,-8.616c7.754,-1.934 15.825,1.266 20.209,7.87c3.52,5.3 4.116,11.73 1.633,17.625l-13.804,32.771c-0.617,1.454 -0.092,2.609 0.275,3.163c0.887,1.333 2.529,1.887 4.054,1.308l33.183,-12.792c7.8,-2.991 16.779,-0.341 21.767,6.242c3.55,4.696 4.658,10.663 3.046,16.379l-9.679,34.217c-0.396,1.417 0.166,2.45 0.537,2.942c0.996,1.316 2.808,1.77 4.317,0.97l31.362,-16.775c7.767,-4.154 17.496,-2.204 23.15,4.384c3.584,4.175 5.092,9.508 4.25,15.012l-5.396,35.15c-0.195,1.279 0.296,2.171 0.746,2.692c1.117,1.304 3.104,1.612 4.554,0.587l29.055,-20.491c7.483,-5.275 18.108,-4.125 24.358,2.312c3.517,3.621 5.371,8.438 5.217,13.567l-1.034,35.546c-0.033,1.196 0.488,1.983 0.925,2.437c0.654,0.671 1.563,1.059 2.496,1.059c0.575,-0 1.429,-0.155 2.242,-0.892l26.321,-23.908c3.529,-3.209 7.862,-4.9 12.529,-4.9c9.787,-0 17.858,7.316 18.771,17.025l3.341,35.4c0.192,2.016 1.863,3.075 3.413,3.075c0.687,-0 1.687,-0.213 2.533,-1.188l23.179,-26.962c3.625,-4.217 8.65,-6.542 14.146,-6.542c8.925,-0 16.492,6.054 18.408,14.729l7.667,34.721c0.408,1.837 1.971,2.662 3.338,2.662c0.666,0 1.912,-0.2 2.787,-1.512l19.688,-29.613c3.545,-5.32 9.22,-8.375 15.583,-8.375c8.083,0 15.05,4.909 17.742,12.5l11.875,33.517c0.587,1.667 2.037,2.258 3.204,2.258c1.3,0 2.429,-0.7 3.012,-1.87l15.909,-31.805c3.195,-6.4 9.629,-10.375 16.783,-10.375m35.704,48.217c-2.867,0 -5.45,-1.6 -6.742,-4.175l-15.904,-31.8c-2.529,-5.054 -7.412,-8.075 -13.058,-8.075c-5.646,0 -10.529,3.021 -13.058,8.075l-15.905,31.8c-1.287,2.575 -3.87,4.175 -6.741,4.175c-3.254,0 -6.05,-1.975 -7.134,-5.033l-11.875,-33.517c-2.091,-5.908 -7.516,-9.725 -13.812,-9.725c-4.942,0 -9.354,2.379 -12.108,6.521l-19.692,29.604c-1.425,2.142 -3.704,3.375 -6.258,3.375c-3.588,0 -6.634,-2.437 -7.409,-5.929l-7.666,-34.721c-1.488,-6.75 -7.384,-11.462 -14.338,-11.462c-4.262,-0 -8.162,1.808 -10.987,5.095l-23.18,26.959c-1.462,1.704 -3.483,2.637 -5.691,2.637c-3.942,0 -7.192,-2.946 -7.559,-6.85l-3.341,-35.4c-0.813,-8.612 -8.142,-13.25 -14.625,-13.25c-3.617,0 -6.979,1.317 -9.725,3.817l-26.321,23.908c-2.954,2.688 -7.8,2.459 -10.529,-0.346c-1.413,-1.45 -2.159,-3.395 -2.104,-5.462l1.033,-35.55c0.121,-3.992 -1.317,-7.738 -4.038,-10.538c-4.87,-5.02 -13.116,-5.941 -18.97,-1.812l-29.055,20.496c-3.154,2.229 -7.641,1.6 -10.112,-1.275c-1.442,-1.679 -2.046,-3.825 -1.708,-6.042l5.395,-35.146c0.659,-4.287 -0.512,-8.433 -3.291,-11.675c-4.413,-5.137 -11.938,-6.679 -18.021,-3.421l-31.363,16.771c-3.262,1.742 -7.408,0.779 -9.604,-2.125c-1.425,-1.887 -1.875,-4.287 -1.225,-6.587l9.679,-34.221c1.255,-4.446 0.396,-9.083 -2.362,-12.729c-3.892,-5.142 -10.838,-7.221 -16.946,-4.867l-33.179,12.783c-3.304,1.288 -7.088,0.034 -9.025,-2.887c-1.413,-2.133 -1.646,-4.713 -0.646,-7.088l13.804,-32.762c1.934,-4.592 1.475,-9.588 -1.262,-13.704c-3.421,-5.159 -9.663,-7.638 -15.729,-6.138l-34.505,8.617c-3.266,0.821 -6.7,-0.671 -8.375,-3.563c-1.358,-2.35 -1.358,-5.166 0,-7.533l17.725,-30.821c2.63,-4.571 2.63,-10.021 -0.004,-14.566c-2.962,-5.125 -8.383,-7.942 -14.421,-7.205l-35.295,4.305c-3.28,0.425 -6.246,-1.259 -7.68,-4.13c-1.283,-2.575 -1.004,-5.604 0.73,-7.904l21.379,-28.412c3.4,-4.517 3.925,-10.229 1.404,-15.288c-2.517,-5.058 -7.396,-8.083 -13.05,-8.091l-35.55,-0.063c-3.083,-0.004 -5.746,-1.771 -6.946,-4.608c-1.2,-2.842 -0.617,-5.984 1.525,-8.196l24.708,-25.571c3.925,-4.058 5.15,-9.667 3.271,-14.996c-1.879,-5.333 -6.346,-8.929 -11.946,-9.629l-35.287,-4.433c-3.058,-0.384 -5.479,-2.463 -6.325,-5.429c-0.842,-2.963 0.125,-6.005 2.525,-7.942l26.925,-21.746c4.537,-3.662 6.5,-9.25 5.254,-14.95c-1.25,-5.696 -5.371,-9.954 -11.025,-11.383l-33.546,-8.504c-2.987,-0.759 -5.137,-3.117 -5.612,-6.163c-0.471,-3.042 0.858,-5.95 3.475,-7.575l30.204,-18.775c4.796,-2.979 7.35,-8.121 6.829,-13.746c-0.521,-5.625 -3.975,-10.204 -9.242,-12.254l-33.133,-12.904c-2.871,-1.121 -4.717,-3.725 -4.812,-6.808c-0.096,-3.075 1.583,-5.792 4.383,-7.088l32.279,-14.917c5.129,-2.366 8.292,-7.154 8.467,-12.8c0.175,-5.65 -2.692,-10.62 -7.667,-13.304l-31.296,-16.875c-2.712,-1.458 -4.221,-4.275 -3.933,-7.346c0.279,-3.07 2.279,-5.558 5.217,-6.495l33.866,-10.838c5.379,-1.721 9.109,-6.079 9.975,-11.662c0.867,-5.588 -1.366,-10.875 -5.971,-14.146l-28.987,-20.592c-2.513,-1.783 -3.663,-4.762 -3,-7.775c0.658,-3.008 2.95,-5.233 5.975,-5.804l34.942,-6.596c5.55,-1.046 9.791,-4.921 11.337,-10.354c1.546,-5.433 -0.021,-10.954 -4.192,-14.767l-26.233,-23.996c-2.275,-2.079 -3.05,-5.175 -2.029,-8.083c1.025,-2.908 3.571,-4.837 6.642,-5.033l35.495,-2.242c5.638,-0.358 10.321,-3.683 12.521,-8.887c2.2,-5.2 1.325,-10.871 -2.346,-15.167l-23.087,-27.046c-1.938,-2.267 -2.363,-5.354 -1.117,-8.058c1.246,-2.713 3.867,-4.396 6.829,-4.396l0.488,0.012l35.487,2.13c5.809,0.329 11,-2.575 13.742,-7.671c2.588,-4.8 2.333,-10.392 -0.679,-14.95l-19.592,-29.675c-1.554,-2.354 -1.691,-5.242 -0.358,-7.721c1.546,-2.879 4.662,-4.492 8.037,-3.863l34.967,6.467c6,1.117 11.892,-1.542 15.088,-6.687c2.708,-4.363 2.941,-9.521 0.65,-14.15l-15.796,-31.859c-1.167,-2.358 -1.046,-5.096 0.333,-7.316c1.817,-2.93 5.396,-4.292 8.708,-3.238l33.909,10.721c6.1,1.929 12.696,-0.367 16.35,-5.521c2.75,-3.879 3.416,-8.7 1.829,-13.229l-11.758,-33.554c-0.821,-2.346 -0.48,-4.838 0.941,-6.846c2.075,-2.917 6.034,-4.029 9.329,-2.521l32.33,14.8c6.087,2.788 13.375,0.958 17.5,-4.162c2.791,-3.463 3.804,-7.796 2.845,-12.209l-7.545,-34.746c-0.488,-2.245 0.05,-4.55 1.47,-6.316c2.317,-2.875 6.675,-3.692 9.875,-1.713l30.263,18.667c6.004,3.704 13.867,2.458 18.521,-2.638c2.754,-3.02 4.062,-6.966 3.683,-11.112l-3.221,-35.413c-0.191,-2.15 0.488,-4.191 1.913,-5.758c2.608,-2.854 7.262,-3.283 10.333,-0.812l27.746,22.237c2.637,2.117 5.771,3.238 9.054,3.238c6.988,-0 14.383,-5.296 14.671,-14.155l1.154,-35.537c0.133,-4.104 3.467,-7.317 7.592,-7.317c2.021,0 3.929,0.813 5.371,2.296l24.795,25.488c2.784,2.858 6.467,4.433 10.375,4.433c6.25,-0 13.242,-4.242 14.513,-12.354l5.517,-35.125c0.579,-3.7 3.733,-6.388 7.495,-6.388c2.359,0 4.542,1.092 5.988,2.992l21.475,28.346c2.787,3.675 7,5.783 11.567,5.783c5.508,0 12.012,-3.271 14.104,-10.583l9.791,-34.184c0.938,-3.279 3.863,-5.475 7.284,-5.475c2.708,0 5.146,1.405 6.512,3.763l17.829,30.762c2.646,4.559 7.359,7.28 12.613,7.28c5.967,-0 11.129,-3.405 13.458,-8.888l13.917,-32.721c1.204,-2.833 3.871,-4.596 6.95,-4.596c3.079,0 5.746,1.763 6.95,4.596l13.917,32.721c2.329,5.483 7.491,8.888 13.458,8.888c5.254,-0 9.967,-2.721 12.612,-7.28l17.83,-30.762c1.366,-2.358 3.8,-3.763 6.508,-3.763c3.425,0 6.35,2.196 7.283,5.475l9.792,34.184c2.096,7.312 8.596,10.583 14.108,10.583c4.563,0 8.775,-2.108 11.563,-5.787l21.483,-28.342c1.442,-1.9 3.621,-2.992 5.979,-2.992c3.763,0 6.917,2.688 7.5,6.388l5.513,35.125c1.275,8.112 8.266,12.354 14.516,12.354c3.905,-0 7.588,-1.575 10.371,-4.433l24.796,-25.488c1.442,-1.483 3.35,-2.296 5.375,-2.296c4.121,0 7.454,3.213 7.588,7.317l1.158,35.537c0.287,8.859 7.683,14.155 14.667,14.155c3.283,-0 6.416,-1.121 9.058,-3.238l27.742,-22.242c3.07,-2.466 7.725,-2.037 10.337,0.817c1.425,1.563 2.104,3.608 1.913,5.754l-3.225,35.417c-0.38,4.146 0.933,8.092 3.691,11.112c4.65,5.092 12.5,6.342 18.513,2.638l30.266,-18.667c3.205,-1.971 7.559,-1.162 9.875,1.713c1.425,1.766 1.963,4.066 1.471,6.316l-7.55,34.746c-0.954,4.409 0.054,8.742 2.846,12.204c4.129,5.125 11.421,6.955 17.504,4.167l32.329,-14.8c3.3,-1.512 7.259,-0.396 9.33,2.521c1.42,2.004 1.766,4.5 0.941,6.846l-11.758,33.554c-1.588,4.529 -0.921,9.35 1.829,13.225c3.658,5.158 10.246,7.454 16.35,5.525l33.904,-10.721c3.304,-1.05 6.896,0.304 8.713,3.238c1.379,2.22 1.5,4.958 0.333,7.316l-15.796,31.859c-2.296,4.629 -2.058,9.783 0.65,14.15c3.192,5.145 9.092,7.808 15.088,6.687l34.966,-6.467c3.359,-0.629 6.488,0.984 8.038,3.863c1.329,2.479 1.196,5.367 -0.363,7.721l-19.587,29.675c-3.013,4.558 -3.267,10.15 -0.679,14.954c2.737,5.096 7.958,8.025 13.733,7.667l35.979,-2.142c2.967,-0 5.584,1.683 6.834,4.392c1.245,2.704 0.816,5.791 -1.121,8.062l-23.092,27.046c-3.667,4.296 -4.542,9.967 -2.337,15.171c2.2,5.204 6.883,8.525 12.525,8.883l35.479,2.242c3.083,0.196 5.625,2.125 6.65,5.033c1.021,2.904 0.25,6.004 -2.021,8.079l-26.238,24c-4.17,3.813 -5.737,9.338 -4.191,14.771c1.546,5.433 5.783,9.304 11.337,10.35l34.942,6.596c3.029,0.571 5.317,2.796 5.975,5.804c0.658,3.013 -0.492,5.992 -3.008,7.775l-28.984,20.592c-4.604,3.271 -6.837,8.558 -5.971,14.141c0.871,5.584 4.596,9.946 9.98,11.667l33.866,10.838c2.934,0.941 4.934,3.425 5.217,6.495c0.283,3.071 -1.221,5.884 -3.933,7.346l-31.3,16.875c-4.971,2.684 -7.838,7.654 -7.667,13.304c0.175,5.646 3.342,10.434 8.471,12.805l32.275,14.912c2.8,1.296 4.479,4.013 4.383,7.096c-0.096,3.075 -1.942,5.679 -4.808,6.8l-33.134,12.904c-5.266,2.05 -8.72,6.629 -9.241,12.254c-0.521,5.629 2.029,10.767 6.829,13.746l30.2,18.775c2.621,1.625 3.95,4.533 3.479,7.575c-0.475,3.046 -2.621,5.404 -5.608,6.163l-34.471,8.733c-5.479,1.387 -9.471,5.512 -10.679,11.033c-1.209,5.517 0.696,10.929 5.091,14.475l27.663,22.342c2.396,1.937 3.362,4.979 2.521,7.942c-0.842,2.962 -3.267,5.045 -6.325,5.429l-35.279,4.433c-5.605,0.7 -10.075,4.296 -11.955,9.629c-1.879,5.329 -0.654,10.938 3.271,14.996l24.713,25.571c2.141,2.217 2.721,5.354 1.521,8.196c-1.2,2.837 -3.859,4.604 -6.942,4.608l-35.558,0.063c-5.646,0.008 -10.525,3.033 -13.042,8.087c-2.517,5.063 -1.996,10.775 1.4,15.292l21.383,28.412c1.734,2.3 2.009,5.329 0.725,7.904c-1.433,2.871 -4.379,4.53 -7.675,4.13l-35.3,-4.305c-6.016,-0.737 -11.454,2.075 -14.421,7.205c-2.629,4.545 -2.629,9.995 -0.004,14.566l17.725,30.821c1.363,2.367 1.363,5.183 0,7.533c-1.671,2.892 -5.096,4.38 -8.371,3.563l-34.504,-8.617c-6.058,-1.508 -12.308,0.975 -15.729,6.134c-2.733,4.12 -3.196,9.116 -1.262,13.708l13.808,32.762c1,2.375 0.758,4.955 -0.654,7.088c-1.942,2.925 -5.713,4.167 -9.029,2.887l-33.175,-12.783c-6.121,-2.35 -13.059,-0.271 -16.946,4.867c-2.754,3.646 -3.613,8.283 -2.354,12.729l9.675,34.221c0.645,2.3 0.204,4.7 -1.221,6.583c-2.2,2.913 -6.35,3.867 -9.617,2.129l-31.35,-16.771c-6.083,-3.254 -13.617,-1.716 -18.029,3.425c-2.779,3.238 -3.946,7.384 -3.292,11.671l5.4,35.146c0.338,2.217 -0.271,4.358 -1.708,6.038c-2.475,2.883 -6.963,3.504 -10.113,1.279l-29.058,-20.496c-5.854,-4.129 -14.092,-3.2 -18.967,1.808c-2.725,2.804 -4.162,6.55 -4.041,10.542l1.033,35.55c0.058,2.067 -0.683,4.004 -2.096,5.458c-2.733,2.804 -7.583,3.038 -10.533,0.35l-26.321,-23.908c-2.75,-2.5 -6.112,-3.817 -9.729,-3.817c-6.483,0 -13.808,4.638 -14.625,13.25l-3.333,35.4c-0.371,3.904 -3.625,6.846 -7.563,6.85c-2.208,0 -4.229,-0.933 -5.687,-2.637l-23.184,-26.959c-2.825,-3.287 -6.729,-5.095 -10.987,-5.095c-6.954,-0 -12.85,4.712 -14.342,11.462l-7.667,34.721c-0.77,3.492 -3.816,5.929 -7.408,5.929c-2.55,0 -4.829,-1.233 -6.254,-3.375l-19.692,-29.604c-2.758,-4.142 -7.171,-6.521 -12.108,-6.521c-6.296,0 -11.717,3.817 -13.808,9.725l-11.88,33.517c-1.083,3.058 -3.879,5.033 -7.133,5.033" style="fill:#5d5b5b;fill-rule:nonzero;"/><path id="ranuras" d="M2119.39,807.358c-15.729,0 -26.833,-8.071 -29.862,-10.546c-6.442,-5.258 -48.442,-56.591 -60.338,-78.395c-7.912,-14.513 -4.642,-32.688 -0.858,-53.734c2.166,-12.021 4.616,-25.641 5.237,-40.183c0.971,-22.5 -3.421,-44.125 -6.954,-61.504c-2.725,-13.413 -4.696,-23.104 -3.217,-28.559c3.225,-11.929 15.671,-26.774 16.196,-27.4c1.025,-1.691 29.434,-47.32 49.163,-59.8c7.512,-4.745 15.812,-7.258 24.012,-7.258c16.271,0 31.225,9.721 42.104,27.375c18.575,30.117 30.017,127.238 30.892,139.242c1.117,15.283 -3.167,67.154 -7.504,115.875c-4.646,52.116 -31.904,80.496 -49.775,84c-3.017,0.587 -6.079,0.887 -9.096,0.887Zm-6.621,-363.212c-7.408,-0 -14.941,2.287 -21.783,6.612c-18.929,11.971 -47.742,58.25 -48.029,58.717c-0.3,0.392 -12.554,15.017 -15.538,26.05c-1.216,4.504 0.767,14.271 3.279,26.642c3.388,16.67 8.025,39.504 7.038,62.512c-0.638,14.821 -3.117,28.596 -5.3,40.746c-3.796,21.1 -6.796,37.771 0.412,50.996c11.942,21.887 54.055,72.871 59.317,77.171c2.758,2.254 12.879,9.6 27.225,9.6c2.75,-0 5.542,-0.271 8.296,-0.813c16.112,-3.158 42.017,-30.858 46.425,-80.279c4.321,-48.554 8.592,-100.213 7.496,-115.204c-1.284,-17.659 -13.267,-109.763 -30.279,-137.354c-10.092,-16.375 -23.784,-25.396 -38.559,-25.396Zm-166.529,-62.536c-16.484,-0.004 -30.888,-11.5 -47.567,-24.817c-9.537,-7.616 -20.35,-16.254 -32.842,-23.716c-19.32,-11.555 -40.445,-17.98 -57.412,-23.138c-13.088,-3.983 -22.55,-6.858 -26.646,-10.75c-8.967,-8.521 -16.096,-26.525 -16.396,-27.287c-1,-1.7 -27.616,-48.396 -29.208,-71.692c-0.833,-12.233 2.825,-23.638 10.304,-32.113c8.667,-9.829 22.1,-15.525 38.842,-16.47c35.296,-2.038 126.554,34.287 137.166,39.066c14.03,6.309 57.592,34.742 98.359,61.721c43.629,28.879 55.625,66.354 50.208,83.742c-6.158,19.746 -22.237,27.704 -27.021,29.671c-7.687,3.166 -72.821,15.691 -97.662,15.783l-0.125,-0Zm-157.934,-225.9c-0.954,-0 -1.87,0.025 -2.754,0.075c-15.604,0.883 -28.041,6.092 -35.958,15.067c-6.733,7.633 -10.025,17.958 -9.267,29.075c1.525,22.341 28.525,69.704 28.796,70.179c0.204,0.45 7.229,18.183 15.521,26.062c3.383,3.209 12.917,6.113 24.987,9.784c16.28,4.95 38.575,11.733 58.342,23.545c12.729,7.613 23.658,16.338 33.3,24.038c16.733,13.358 29.946,23.904 44.967,23.908l-0,2.084l0.108,-2.084c24.938,-0.091 89.813,-12.883 96.092,-15.471c4.358,-1.791 19.012,-9.041 24.629,-27.058c4.887,-15.679 -7.154,-51.642 -48.533,-79.025c-38.25,-25.317 -83.93,-55.175 -97.763,-61.396c-10.225,-4.608 -95.892,-38.783 -132.467,-38.783Zm-340.651,226.392c-26.196,0 -88.962,-10.662 -96.258,-13.466c-4.825,-1.85 -21.096,-9.417 -27.725,-29.021c-5.829,-17.254 5.275,-55.004 48.204,-84.908c40.125,-27.955 83.012,-57.425 96.858,-64.055c10.65,-5.108 100.813,-43.566 136.192,-42.325c16.758,0.55 30.321,5.925 39.225,15.542c7.675,8.296 11.608,19.608 11.058,31.863c-1.029,23.325 -26.529,70.641 -27.616,72.645c-0.155,0.492 -6.855,18.659 -15.609,27.388c-4.004,3.987 -13.396,7.092 -26.387,11.383c-16.838,5.563 -37.792,12.492 -56.838,24.496c-12.308,7.763 -22.916,16.654 -32.271,24.5c-16.391,13.742 -30.545,25.604 -47.083,25.942l-1.75,0.016Zm155.633,-229.633c-35.704,0 -122.366,36.963 -132.754,41.942c-13.579,6.5 -56.287,35.854 -96.279,63.712c-40.704,28.359 -51.892,64.596 -46.637,80.159c6.05,17.879 20.875,24.779 25.275,26.466c5.933,2.279 68.391,13.188 94.762,13.188l1.667,-0.017c15.066,-0.304 28.05,-11.192 44.487,-24.967c9.459,-7.933 20.179,-16.916 32.729,-24.829c19.471,-12.283 41.596,-19.591 57.75,-24.929c11.98,-3.958 21.446,-7.087 24.75,-10.379c8.1,-8.075 14.7,-25.967 14.767,-26.146c0.388,-0.758 26.258,-48.75 27.242,-71.125c0.496,-11.129 -3.042,-21.375 -9.954,-28.846c-8.13,-8.779 -20.688,-13.696 -36.309,-14.208c-0.487,-0.013 -0.987,-0.021 -1.496,-0.021Zm-2.306,944.198c-36.216,-0 -124.096,-38.159 -134.633,-43.305c-13.792,-6.716 -56.471,-36.487 -96.4,-64.729c-42.721,-30.208 -53.554,-68.033 -47.604,-85.246c6.766,-19.55 23.087,-27.008 27.929,-28.829c7.317,-2.746 73.204,-13.421 98.1,-12.754c16.529,0.454 30.604,12.417 46.896,26.271c9.304,7.913 19.846,16.875 32.1,24.729c18.958,12.142 39.866,19.213 56.666,24.896c12.963,4.383 22.33,7.55 26.305,11.567c8.695,8.791 15.266,27.004 15.537,27.779c0.95,1.733 26.121,49.225 26.988,72.558c0.458,12.254 -3.555,23.542 -11.288,31.783c-8.967,9.555 -22.571,14.834 -39.333,15.263l-1.263,0.017Zm-155.071,-230.729c-27.395,-0 -88.295,10.32 -94.175,12.525c-4.408,1.658 -19.279,8.454 -25.454,26.283c-5.366,15.529 5.563,51.842 46.071,80.487c39.792,28.142 82.3,57.796 95.825,64.388c10.433,5.096 97.35,42.879 132.804,42.879l1.154,-0.017c15.625,-0.4 28.213,-5.225 36.4,-13.95c6.971,-7.42 10.584,-17.641 10.163,-28.775c-0.829,-22.379 -26.363,-70.545 -26.621,-71.037c-0.187,-0.454 -6.658,-18.392 -14.7,-26.525c-3.279,-3.317 -12.725,-6.504 -24.675,-10.55c-16.121,-5.454 -38.192,-12.917 -57.579,-25.333c-12.492,-8 -23.15,-17.067 -32.554,-25.063c-16.342,-13.896 -29.246,-24.871 -44.313,-25.279c-0.741,-0.025 -1.529,-0.033 -2.346,-0.033Zm-169.779,-61.233c-2.904,-0 -5.85,-0.28 -8.754,-0.83c-17.896,-3.366 -45.362,-31.533 -50.404,-83.612c-4.708,-48.679 -9.383,-100.508 -8.379,-115.821c0.783,-12.008 11.496,-109.225 29.829,-139.471c10.825,-17.854 25.812,-27.691 42.208,-27.691c8.096,-0 16.309,2.445 23.754,7.079c19.83,12.329 48.584,57.741 49.796,59.671c0.354,0.375 12.909,15.125 16.225,27.029c1.517,5.446 -0.375,15.15 -3,28.583c-3.4,17.404 -7.629,39.067 -6.491,61.554c0.733,14.534 3.287,28.142 5.541,40.142c3.946,21.021 7.354,39.171 -0.45,53.742c-11.725,21.883 -53.341,73.537 -59.741,78.854c-3.05,2.521 -14.234,10.771 -30.134,10.771Zm4.5,-363.259c-14.883,0 -28.604,9.121 -38.641,25.688c-16.8,27.708 -28.088,119.908 -29.238,137.583c-0.987,15.013 3.675,66.633 8.367,115.142c4.779,49.383 30.887,76.887 47.029,79.925c2.65,0.5 5.337,0.754 7.983,0.754c14.504,-0 24.696,-7.513 27.475,-9.813c5.229,-4.341 46.954,-55.641 58.725,-77.616c7.113,-13.275 3.988,-29.917 0.029,-50.996c-2.279,-12.133 -4.858,-25.888 -5.608,-40.708c-1.162,-22.996 3.304,-45.863 6.563,-62.563c2.42,-12.383 4.329,-22.171 3.079,-26.662c-3.067,-11.013 -15.434,-25.542 -15.554,-25.688c-0.475,-0.708 -29.638,-46.771 -48.655,-58.596c-6.783,-4.216 -14.237,-6.45 -21.554,-6.45Zm508.732,654.274c-0.696,-0 -1.366,-0.013 -2.021,-0.038c-16.762,-0.671 -30.287,-6.146 -39.12,-15.825c-7.617,-8.354 -11.463,-19.696 -10.825,-31.937c1.187,-23.325 27.033,-70.45 28.133,-72.446c0.158,-0.492 6.992,-18.613 15.808,-27.279c4.034,-3.963 13.446,-6.996 26.471,-11.196c16.879,-5.442 37.888,-12.217 57.013,-24.079c12.37,-7.68 23.045,-16.496 32.462,-24.275c16.483,-13.617 30.721,-25.38 47.25,-25.596l1.079,-0.009c25.209,0 89.496,11.28 96.829,14.159c4.817,1.891 21.034,9.566 27.521,29.221c5.704,17.3 -5.671,54.97 -48.808,84.566c-40.329,27.663 -83.425,56.821 -97.325,63.346c-10.438,4.917 -97.746,41.388 -134.467,41.388Zm156.25,-228.513l-1.021,0.008c-15.062,0.196 -28.12,10.988 -44.654,24.642c-9.521,7.863 -20.308,16.771 -32.916,24.6c-19.567,12.138 -41.742,19.288 -57.938,24.508c-12.008,3.875 -21.496,6.93 -24.825,10.2c-8.167,8.025 -14.887,25.863 -14.95,26.042c-0.396,0.758 -26.608,48.563 -27.754,70.925c-0.575,11.125 2.887,21.396 9.746,28.913c8.066,8.845 20.587,13.85 36.204,14.47c34.583,1.4 124.025,-35.995 134.554,-40.95c13.629,-6.404 56.55,-35.45 96.733,-63.012c40.913,-28.071 52.359,-64.225 47.217,-79.825c-5.921,-17.929 -20.696,-24.929 -25.087,-26.646c-6.109,-2.396 -69.138,-13.875 -95.309,-13.875Z" style="fill:#5d5b5b;"/><path id="PefilCorona" d="M605.113,347.868l0,670.622l-9.375,8.796l0,137.571l10.7,16.433l-12.737,29.262l-48.404,0l-12.734,-29.262l10.7,-16.433l0,-137.571l-9.375,-8.796l0,-119.558l0.025,-0l-0,-551.064l-0,-3.466l-0.001,-116.096l9.375,-8.796l0,-137.567l-10.7,-16.433l12.734,-29.262l48.404,-0l12.737,29.262l-10.7,16.433l0,137.567l9.375,8.796l0,119.562l-0.024,0Zm-66.471,0l0,551.064l42.95,-0l0.159,-0.167l0.158,0.167l18.475,-0l0,-551.064l-18.451,0l-0.158,0.163l-0.158,-0.163l-42.975,0Zm52.93,789.747l-25.184,24.825l25.184,-0l-0,-24.825Zm-53.517,-208.867l0,75.125l32.163,-19.521l-0,-35.7l-32.163,-19.904Zm52.946,277.542l10.7,-24.588l-9.771,-15l-44.858,0l-9.775,15l10.704,24.588l43,-0Zm9.946,-223.45l-0,-33.258l-26.563,-0l0,33.258l15.85,-0l0.296,-0.288l0.262,0.288l10.155,-0Zm-0,18.492l-0,-14.225l-9.05,-0l-44.467,42.97l-0,24.921l53.517,-53.666Zm-17.605,-98.13l-29.295,30.459l14.083,8.716l32.817,-31.029l-0,-8.146l-17.605,0Zm17.605,113.417l-0,-9.317l-53.517,53.667l-0,24.558l44.142,-44.079l-0,-16.033l9.375,-8.796Zm-54.375,-113.417l-8.517,0l-0,9.917l8.517,-9.917Zm54.375,42.113l-0,-28.163l-29.105,27.521l1.038,0.642l28.067,-0Zm-53.517,170.071l44.142,-44.088l-0,-23.891l-44.142,44.083l-0,23.896Zm12.946,47.054l31.196,-30.746l-0,-23.375l-44.142,44.079l-0,10.042l12.946,-0Zm-12.946,-15.996l44.142,-44.083l-0,-25.109l-44.142,44.084l-0,25.108Zm30.062,-243.242l-25.375,0l-14.062,16.371l-0,5.184l0.429,-0.721l11.896,7.354l27.112,-28.188Zm-39.437,113.417l8.742,8.2l39.029,-37.712l-11.967,-0l-35.804,21.721l0,7.791Zm0.024,-698.571l32.163,-19.9l-0,-35.7l-32.163,-19.517l0,75.117Zm53.842,-58.35l9.05,-0l-0,-14.234l-53.517,-53.662l0,24.916l44.467,42.98Zm-53.842,-29.517l0,7.792l35.804,21.725l11.967,-0l-39.029,-37.721l-8.742,8.204Zm62.892,105.271l-32.817,-31.025l-14.083,8.712l29.296,30.463l17.604,-0l-0,-8.15Zm-0,-33.967l-28.067,0l-1.037,0.642l29.104,27.521l-0,-28.163Zm-9.375,-186.379l-31.196,-30.742l-12.946,0l0,10.038l44.142,44.079l-0,-23.375Zm-0,29.329l-44.142,-44.079l0,25.108l44.142,44.079l-0,-25.108Zm-0,-60.071l-25.184,0l25.184,24.821l-0,-24.821Zm-39.454,259.238l25.375,-0l-27.113,-28.196l-11.896,7.362l-0.429,-0.725l0,5.18l14.063,16.379Zm39.454,-168.1l-44.142,-44.079l0,23.891l44.142,44.079l-0,-23.891Zm-45,168.1l-8.517,-9.921l0,9.921l8.517,-0Zm44.429,-303.088l-43,0l-10.704,24.584l9.775,15l44.858,-0l9.771,-15l-10.7,-24.584Zm-0.471,223.738l-0.296,-0.288l-15.85,0l0,33.254l26.563,0l-0,-33.254l-10.154,0l-0.263,0.288Zm1.042,-42.867l-0,-16.033l-44.142,-44.084l0,24.563l53.517,53.667l-0,-9.317l-9.375,-8.796Z" style="fill:#5b5b5b;"/><g id="C-Agujeros"><path d="M1696.86,305.439c-17.587,0 -31.9,-14.308 -31.9,-31.9c0,-17.583 14.313,-31.891 31.9,-31.891c17.575,-0 31.888,14.308 31.888,31.891c-0,17.592 -14.313,31.9 -31.888,31.9Zm0,-59.354c-15.15,0 -27.467,12.317 -27.467,27.454c0,15.142 12.317,27.459 27.467,27.459c15.138,-0 27.454,-12.317 27.454,-27.459c0,-15.137 -12.316,-27.454 -27.454,-27.454Zm0.924,759.114c-17.592,-0 -31.9,-14.309 -31.9,-31.892c-0,-17.592 14.308,-31.896 31.9,-31.896c17.575,0 31.887,14.304 31.887,31.896c0,17.583 -14.312,31.892 -31.887,31.892Zm-0,-59.354c-15.154,-0 -27.467,12.316 -27.467,27.462c0,15.138 12.313,27.458 27.467,27.458c15.137,0 27.454,-12.32 27.454,-27.458c0,-15.146 -12.317,-27.462 -27.454,-27.462Zm302.079,-116.903c-17.592,-0 -31.892,-14.313 -31.892,-31.892c0,-17.592 14.3,-31.896 31.892,-31.896c17.588,0 31.896,14.304 31.896,31.896c-0,17.579 -14.308,31.892 -31.896,31.892Zm0,-59.355c-15.142,0 -27.458,12.313 -27.458,27.463c-0,15.137 12.316,27.458 27.458,27.458c15.138,0 27.463,-12.321 27.463,-27.458c-0,-15.15 -12.325,-27.463 -27.463,-27.463Zm3.19,-284.515c-17.587,-0 -31.9,-14.309 -31.9,-31.896c0,-17.588 14.313,-31.896 31.9,-31.896c17.588,-0 31.892,14.308 31.892,31.896c-0,17.587 -14.304,31.896 -31.892,31.896Zm0,-59.355c-15.142,0 -27.458,12.321 -27.458,27.459c-0,15.137 12.316,27.458 27.458,27.458c15.142,0 27.454,-12.321 27.454,-27.458c0,-15.138 -12.312,-27.459 -27.454,-27.459Zm-609.438,56.392c-17.592,0 -31.896,-14.304 -31.896,-31.896c0,-17.583 14.304,-31.891 31.896,-31.891c17.588,-0 31.896,14.308 31.896,31.891c-0,17.592 -14.308,31.896 -31.896,31.896Zm0,-59.354c-15.142,-0 -27.458,12.321 -27.458,27.458c-0,15.142 12.316,27.459 27.458,27.459c15.142,-0 27.458,-12.317 27.458,-27.459c0,-15.137 -12.316,-27.458 -27.458,-27.458Zm2.586,409.93c-17.588,0 -31.896,-14.304 -31.896,-31.888c0,-17.595 14.308,-31.904 31.896,-31.904c17.592,0 31.896,14.309 31.896,31.904c-0,17.584 -14.304,31.888 -31.896,31.888Zm-0,-59.354c-15.138,-0 -27.458,12.317 -27.458,27.466c-0,15.134 12.32,27.451 27.458,27.451c15.142,-0 27.458,-12.317 27.458,-27.451c0,-15.149 -12.316,-27.466 -27.458,-27.466Z" style="fill:#50b15e;"/><g id="C"><path d="M1728.72,287.292l-0,4.166l-4.167,0l-0,-4.166l4.167,-0Zm-0,157.72l-0,8.084l-4.167,-0l-0,-8.084l4.167,0Zm-0,-16.158l-0,8.079l-4.167,0l-0,-8.079l4.167,0Zm-0,32.325l-0,8.079l-4.167,0l-0,-8.079l4.167,0Zm-0,32.329l-0,8.079l-4.167,0l-0,-8.079l4.167,0Zm-0,16.163l-0,8.079l-4.167,0l-0,-8.079l4.167,-0Zm-0,-96.983l-0,8.079l-4.167,-0l-0,-8.079l4.167,-0Zm-0,64.654l-0,8.083l-4.167,-0l-0,-8.083l4.167,-0Zm-0,-161.638l-0,8.079l-4.167,0l-0,-8.079l4.167,0Zm-0,16.163l-0,8.079l-4.167,-0l-0,-8.079l4.167,-0Zm-0,-32.325l-0,8.079l-4.167,-0l-0,-8.079l4.167,-0Zm-0,96.983l-0,8.079l-4.167,0l-0,-8.079l4.167,0Zm-0,-32.333l-0,8.083l-4.167,-0l-0,-8.083l4.167,-0Zm-0,-16.163l-0,8.084l-4.167,-0l-0,-8.084l4.167,0Zm-0,32.329l-0,8.084l-4.167,-0l-0,-8.084l4.167,0Zm-0,145.475l-0,4.167l-4.167,-0l-0,-4.167l4.167,0Zm-58.334,-241.666l0,4.166l-4.166,0l-0,-4.166l4.166,-0Zm0,173.887l0,8.079l-4.166,0l-0,-8.079l4.166,0Zm0,-16.167l0,8.084l-4.166,-0l-0,-8.084l4.166,0Zm0,-16.162l0,8.079l-4.166,0l-0,-8.079l4.166,-0Zm0,-16.162l0,8.079l-4.166,-0l-0,-8.079l4.166,-0Zm0,-16.167l0,8.079l-4.166,0l-0,-8.079l4.166,-0Zm0,113.15l0,8.079l-4.166,0l-0,-8.079l4.166,-0Zm0,-32.329l0,8.083l-4.166,0l-0,-8.083l4.166,-0Zm0,16.162l0,8.079l-4.166,0l-0,-8.079l4.166,0Zm0,-177.796l0,8.08l-4.166,-0l-0,-8.08l4.166,0Zm0,16.163l0,8.079l-4.166,0l-0,-8.079l4.166,-0Zm0,-32.329l0,8.079l-4.166,-0l-0,-8.079l4.166,-0Zm0,64.65l0,8.083l-4.166,0l-0,-8.083l4.166,-0Zm0,-16.159l0,8.084l-4.166,-0l-0,-8.084l4.166,0Zm0,32.325l0,8.08l-4.166,-0l-0,-8.08l4.166,0Zm0,145.475l0,4.167l-4.166,0l-0,-4.167l4.166,0Z" style="fill:#50b15e;"/><g transform="matrix(82.8431,0,0,82.8431,1730.33,617.161)"></g><text x="1670.51px" y="617.161px" style="font-family:'ArialMT', 'Arial', sans-serif;font-size:82.843px;fill:#50b15e;">C</text><path d="M1702.33,515.417l-11.346,-0l0.029,-12.042l-19.437,13.879l19.375,13.988l0.025,-11.4l11.362,-0l0.029,11.487l19.371,-13.987l-19.437,-13.879l0.029,11.954Z" style="fill:#50b15e;fill-rule:nonzero;"/></g></g><g id="B-Centro"><path d="M1700.38,347.118c-152.313,-0 -276.233,123.916 -276.233,276.233c-0,152.316 123.92,276.229 276.233,276.229c152.312,-0 276.225,-123.913 276.225,-276.229c-0,-152.317 -123.913,-276.233 -276.225,-276.233m-0,556.741c-154.675,0 -280.513,-125.837 -280.513,-280.508c0,-154.679 125.838,-280.513 280.513,-280.513c154.671,0 280.508,125.834 280.508,280.513c0,154.671 -125.837,280.508 -280.508,280.508" style="fill:#34caf9;fill-rule:nonzero;"/><rect x="627.142" y="343.887" width="368.921" height="3.646" style="fill:#34caf9;"/><rect x="627.142" y="896.842" width="368.921" height="3.646" style="fill:#34caf9;"/><path d="M950.312,867.305l14.021,19.337l13.842,-19.475l-12.446,0.058l0,-496.566l12.621,0.062l-13.846,-19.471l-14.021,19.334l11.979,0.058l0,496.6l-12.15,0.063Z" style="fill:#34caf9;fill-rule:nonzero;"/><g transform="matrix(82.8431,0,0,82.8431,1033.07,617.161)"></g><text x="977.81px" y="617.161px" style="font-family:'ArialMT', 'Arial', sans-serif;font-size:82.843px;fill:#34caf9;">B</text></g><g id="A-CentroACentro"><path d="M1705.06,276.529c-2.796,-0.067 -5.583,-0.1 -8.387,-0.1l-0.409,-4.437l0.409,-0c2.837,-0 5.662,0.033 8.483,0.1l-0.096,4.437Zm-26.366,0.358l-0.221,-4.429c2.95,-0.154 5.916,-0.266 8.887,-0.346l0.117,4.442c-2.929,0.075 -5.858,0.188 -8.783,0.333Zm43.912,0.496c-2.912,-0.212 -5.829,-0.396 -8.767,-0.533l0.221,-4.438c2.963,0.146 5.929,0.325 8.884,0.55l-0.338,4.421Zm-61.437,0.842l-0.45,-4.417c2.95,-0.304 5.904,-0.562 8.866,-0.791l0.334,4.429c-2.93,0.221 -5.846,0.483 -8.75,0.779Zm78.929,0.896c-2.9,-0.359 -5.813,-0.688 -8.738,-0.975l0.442,-4.421c2.958,0.296 5.912,0.625 8.85,0.987l-0.554,4.409Zm-96.367,1.321l-0.662,-4.388c2.925,-0.446 5.866,-0.858 8.812,-1.233l0.558,4.404c-2.912,0.371 -5.812,0.775 -8.708,1.217Zm113.746,1.295c-2.883,-0.508 -5.771,-0.979 -8.671,-1.416l0.658,-4.396c2.938,0.446 5.871,0.929 8.788,1.442l-0.775,4.37Zm-131.038,1.805l-0.895,-4.346c2.9,-0.596 5.812,-1.154 8.745,-1.679l0.788,4.366c-2.892,0.521 -5.771,1.071 -8.638,1.659Zm148.259,1.695c-2.838,-0.654 -5.704,-1.27 -8.584,-1.854l0.884,-4.354c2.916,0.592 5.816,1.221 8.696,1.883l-0.996,4.325Zm-165.384,2.284l-1.104,-4.296c2.859,-0.746 5.746,-1.454 8.646,-2.129l0.992,4.325c-2.85,0.662 -5.692,1.362 -8.534,2.1Zm182.413,2.087c-2.821,-0.796 -5.658,-1.558 -8.483,-2.291l1.091,-4.3c2.888,0.737 5.754,1.516 8.6,2.325l-1.208,4.266Zm-199.304,2.759l-1.325,-4.238c2.829,-0.887 5.662,-1.742 8.521,-2.562l1.22,4.266c-2.816,0.809 -5.62,1.65 -8.416,2.534Zm216.104,2.487c-2.775,-0.946 -5.575,-1.858 -8.388,-2.729l1.33,-4.242c2.845,0.888 5.67,1.813 8.491,2.771l-1.433,4.2Zm-232.725,3.213l-1.546,-4.163c2.775,-1.033 5.575,-2.029 8.383,-2.992l1.438,4.196c-2.775,0.954 -5.533,1.938 -8.275,2.959Zm249.267,2.895c-2.734,-1.087 -5.467,-2.137 -8.23,-3.162l1.538,-4.163c2.792,1.034 5.575,2.1 8.333,3.205l-1.641,4.12Zm-265.55,3.634l-1.759,-4.075c2.717,-1.171 5.446,-2.304 8.192,-3.409l1.654,4.125c-2.712,1.08 -5.408,2.205 -8.087,3.359Zm281.741,3.308c-2.666,-1.229 -5.354,-2.417 -8.05,-3.579l1.746,-4.079c2.746,1.175 5.45,2.383 8.163,3.621l-1.859,4.037Zm-297.654,4.033l-1.958,-3.987c2.654,-1.304 5.325,-2.575 8.012,-3.821l1.859,4.033c-2.655,1.225 -5.288,2.484 -7.913,3.775Zm313.475,3.721c-2.596,-1.362 -5.221,-2.683 -7.854,-3.979l1.946,-3.987c2.671,1.312 5.329,2.658 7.962,4.029l-2.054,3.937Zm-328.996,4.413l-2.162,-3.875c2.587,-1.442 5.191,-2.846 7.812,-4.221l2.063,3.929c-2.596,1.358 -5.163,2.746 -7.713,4.167Zm344.392,4.129c-2.533,-1.483 -5.079,-2.942 -7.642,-4.371l2.154,-3.879c2.592,1.446 5.175,2.921 7.738,4.425l-2.25,3.825Zm-359.496,4.792l-2.354,-3.759c2.508,-1.571 5.037,-3.108 7.592,-4.616l2.258,3.816c-2.521,1.496 -5.017,3.013 -7.496,4.559Zm374.429,4.525c-2.454,-1.613 -4.921,-3.196 -7.421,-4.75l2.359,-3.767c2.516,1.571 5.021,3.175 7.504,4.812l-2.442,3.705Zm-389.066,5.154l-2.542,-3.638c2.429,-1.696 4.883,-3.362 7.354,-5l2.446,3.704c-2.442,1.613 -4.863,3.259 -7.258,4.934Zm403.504,4.896c-2.367,-1.734 -4.746,-3.438 -7.154,-5.113l2.533,-3.646c2.442,1.7 4.862,3.425 7.237,5.184l-2.616,3.575Zm-417.638,5.512l-2.725,-3.508c2.338,-1.817 4.709,-3.604 7.096,-5.363l2.629,3.575c-2.358,1.734 -4.691,3.5 -7,5.296Zm431.546,5.258c-2.271,-1.854 -4.571,-3.675 -6.879,-5.47l2.708,-3.509c2.35,1.813 4.671,3.663 6.979,5.542l-2.808,3.437Zm-445.154,5.85l-2.888,-3.366c2.25,-1.929 4.521,-3.838 6.817,-5.713l2.808,3.438c-2.266,1.854 -4.508,3.733 -6.737,5.641Zm458.496,5.6c-2.179,-1.962 -4.375,-3.904 -6.6,-5.808l2.896,-3.371c2.245,1.934 4.47,3.892 6.67,5.884l-2.966,3.295Zm-471.521,6.188l-3.058,-3.221c2.15,-2.046 4.325,-4.058 6.525,-6.05l2.975,3.296c-2.171,1.962 -4.321,3.95 -6.442,5.975Zm484.271,5.917c-2.084,-2.071 -4.179,-4.113 -6.304,-6.138l3.054,-3.212c2.15,2.037 4.279,4.112 6.379,6.208l-3.129,3.142Zm-496.692,6.512l-3.217,-3.058c2.042,-2.15 4.109,-4.275 6.213,-6.375l3.137,3.137c-2.07,2.071 -4.116,4.171 -6.133,6.296Zm508.8,6.213c-1.958,-2.171 -3.95,-4.317 -5.975,-6.442l3.208,-3.058c2.05,2.145 4.071,4.325 6.055,6.525l-3.288,2.975Zm-520.587,6.825l-3.367,-2.888c1.933,-2.25 3.896,-4.475 5.879,-6.683l3.3,2.979c-1.962,2.175 -3.904,4.375 -5.812,6.592Zm532.041,6.487c-1.846,-2.267 -3.729,-4.508 -5.637,-6.729l3.362,-2.896c1.934,2.25 3.842,4.521 5.709,6.817l-3.434,2.808Zm-543.158,7.142l-3.508,-2.717c1.82,-2.35 3.666,-4.671 5.541,-6.975l3.438,2.808c-1.85,2.271 -3.675,4.563 -5.471,6.884Zm553.933,6.729c-1.746,-2.358 -3.504,-4.692 -5.296,-7.004l3.505,-2.721c1.816,2.342 3.604,4.704 5.354,7.092l-3.563,2.633Zm-564.354,7.442l-3.637,-2.538c1.7,-2.437 3.429,-4.854 5.183,-7.246l3.575,2.634c-1.733,2.358 -3.446,4.741 -5.121,7.15Zm574.396,6.945c-1.608,-2.441 -3.25,-4.862 -4.929,-7.254l3.641,-2.541c1.692,2.429 3.367,4.875 4.984,7.35l-3.696,2.445Zm-584.083,7.738l-3.771,-2.346c1.575,-2.521 3.183,-5.021 4.812,-7.496l3.709,2.438c-1.613,2.446 -3.2,4.916 -4.75,7.404Zm593.4,7.129c-1.5,-2.512 -3.013,-5.012 -4.563,-7.492l3.754,-2.35c1.575,2.509 3.121,5.038 4.621,7.592l-3.812,2.25Zm-602.342,8.042l-3.879,-2.159c1.441,-2.6 2.921,-5.179 4.429,-7.737l3.825,2.254c-1.492,2.521 -2.95,5.071 -4.375,7.642Zm610.879,7.279c-1.362,-2.592 -2.75,-5.163 -4.171,-7.713l3.875,-2.162c1.438,2.587 2.838,5.192 4.221,7.808l-3.925,2.067Zm-619.042,8.325l-3.983,-1.958c1.313,-2.671 2.654,-5.321 4.038,-7.955l3.925,2.059c-1.355,2.596 -2.684,5.216 -3.98,7.854Zm626.78,7.392c-1.221,-2.655 -2.475,-5.288 -3.771,-7.905l3.987,-1.962c1.3,2.65 2.571,5.321 3.821,8.008l-4.037,1.859Zm-634.134,8.616l-4.079,-1.75c1.171,-2.737 2.379,-5.458 3.625,-8.154l4.029,1.85c-1.225,2.667 -2.416,5.354 -3.575,8.054Zm641.084,7.467c-1.096,-2.713 -2.225,-5.408 -3.367,-8.083l4.071,-1.759c1.166,2.713 2.304,5.442 3.408,8.192l-4.112,1.65Zm-647.613,8.904l-4.167,-1.542c1.038,-2.791 2.105,-5.57 3.205,-8.329l4.125,1.642c-1.088,2.729 -2.146,5.467 -3.163,8.229Zm653.733,7.571c-0.954,-2.775 -1.937,-5.533 -2.954,-8.275l4.159,-1.546c1.029,2.771 2.025,5.571 2.991,8.379l-4.196,1.442Zm-659.425,9.121l-4.237,-1.325c0.892,-2.846 1.817,-5.675 2.771,-8.492l4.204,1.433c-0.946,2.78 -1.858,5.575 -2.738,8.384Zm664.709,7.637c-0.817,-2.816 -1.654,-5.621 -2.538,-8.412l4.242,-1.329c0.879,2.82 1.742,5.662 2.554,8.516l-4.258,1.225Zm-669.521,9.271l-4.3,-1.108c0.737,-2.879 1.517,-5.746 2.325,-8.592l4.275,1.217c-0.804,2.812 -1.567,5.633 -2.3,8.483Zm673.937,7.742c-0.662,-2.863 -1.366,-5.704 -2.1,-8.534l4.292,-1.116c0.754,2.871 1.458,5.746 2.138,8.641l-4.33,1.009Zm-677.879,9.375l-4.35,-0.879c0.588,-2.913 1.221,-5.813 1.888,-8.7l4.325,0.995c-0.659,2.85 -1.279,5.713 -1.863,8.584Zm681.425,7.833c-0.521,-2.887 -1.071,-5.762 -1.662,-8.621l4.346,-0.904c0.595,2.904 1.154,5.817 1.687,8.746l-4.371,0.779Zm-684.491,9.475l-4.388,-0.667c0.442,-2.937 0.925,-5.866 1.442,-8.783l4.366,0.779c-0.512,2.879 -0.983,5.767 -1.42,8.671Zm687.162,7.904c-0.371,-2.912 -0.783,-5.812 -1.225,-8.7l4.392,-0.683c0.45,2.929 0.858,5.871 1.237,8.817l-4.404,0.566Zm-689.346,9.534l-4.421,-0.438c0.296,-2.962 0.63,-5.908 0.992,-8.846l4.408,0.554c-0.362,2.892 -0.691,5.809 -0.979,8.73Zm691.117,7.945c-0.217,-2.925 -0.479,-5.841 -0.771,-8.75l4.408,-0.45c0.3,2.938 0.571,5.896 0.792,8.863l-4.429,0.337Zm-692.421,9.588l-4.433,-0.221c0.15,-2.975 0.329,-5.937 0.55,-8.883l4.425,0.325c-0.217,2.916 -0.4,5.841 -0.542,8.779Zm693.338,7.958c-0.088,-2.929 -0.196,-5.854 -0.35,-8.779l4.437,-0.221c0.15,2.954 0.271,5.917 0.338,8.896l-4.425,0.104Zm-698.2,9.609l-0,-0.275c-0,-2.88 0.037,-5.763 0.104,-8.621l4.437,0.112c-0.071,2.834 -0.104,5.663 -0.104,8.509l-4.437,0.275Zm702.645,8.633l-4.429,-0.117c0.063,-2.925 0.1,-5.854 0.1,-8.791l0,-0.538l4.438,0l-0,0.538c-0,2.979 -0.038,5.95 -0.109,8.908Zm-702.187,9.167c-0.154,-2.963 -0.267,-5.925 -0.342,-8.896l4.442,-0.121c0.071,2.942 0.179,5.871 0.329,8.787l-4.429,0.23Zm701.3,8.6l-4.425,-0.325c0.217,-2.913 0.4,-5.846 0.546,-8.771l4.437,0.221c-0.15,2.97 -0.333,5.929 -0.558,8.875Zm-699.954,9.145c-0.3,-2.941 -0.559,-5.9 -0.788,-8.87l4.429,-0.334c0.221,2.929 0.48,5.846 0.775,8.75l-4.416,0.454Zm698.175,8.567l-4.404,-0.554c0.358,-2.908 0.7,-5.817 0.991,-8.733l4.413,0.445c-0.3,2.95 -0.625,5.9 -1,8.842Zm-695.938,9.092c-0.446,-2.921 -0.854,-5.863 -1.229,-8.809l4.404,-0.57c0.371,2.912 0.775,5.816 1.213,8.704l-4.388,0.675Zm693.263,8.508l-4.367,-0.775c0.513,-2.883 0.988,-5.771 1.429,-8.675l4.384,0.663c-0.438,2.945 -0.925,5.87 -1.446,8.787Zm-690.129,9.004c-0.596,-2.9 -1.155,-5.812 -1.675,-8.737l4.366,-0.779c0.521,2.891 1.071,5.766 1.654,8.633l-4.345,0.883Zm686.566,8.429l-4.329,-0.995c0.663,-2.855 1.292,-5.717 1.875,-8.584l4.35,0.884c-0.587,2.912 -1.229,5.804 -1.896,8.695Zm-682.546,8.921c-0.741,-2.871 -1.45,-5.754 -2.116,-8.65l4.321,-1c0.666,2.863 1.366,5.709 2.095,8.534l-4.3,1.116Zm678.096,8.317l-4.262,-1.221c0.808,-2.804 1.571,-5.633 2.3,-8.479l4.304,1.121c-0.742,2.866 -1.529,5.737 -2.342,8.579Zm-673.191,8.796c-0.888,-2.829 -1.738,-5.675 -2.555,-8.529l4.263,-1.225c0.812,2.829 1.654,5.637 2.529,8.416l-4.237,1.338Zm667.862,8.225l-4.192,-1.438c0.938,-2.783 1.859,-5.566 2.734,-8.383l4.237,1.333c-0.887,2.838 -1.812,5.675 -2.779,8.488Zm-662.096,8.608c-1.033,-2.771 -2.029,-5.571 -2.987,-8.375l4.196,-1.442c0.95,2.771 1.933,5.534 2.954,8.28l-4.163,1.537Zm655.884,8.138l-4.117,-1.655c1.096,-2.72 2.15,-5.47 3.171,-8.22l4.162,1.533c-1.033,2.804 -2.104,5.575 -3.216,8.342Zm-649.28,8.358c-1.166,-2.708 -2.3,-5.438 -3.4,-8.192l4.121,-1.641c1.088,2.712 2.204,5.404 3.363,8.083l-4.084,1.75Zm642.234,8.042l-4.029,-1.863c1.229,-2.667 2.412,-5.346 3.583,-8.046l4.075,1.75c-1.179,2.738 -2.383,5.45 -3.629,8.159Zm-634.804,8.083c-1.305,-2.654 -2.575,-5.321 -3.817,-8.013l4.029,-1.862c1.225,2.658 2.483,5.292 3.771,7.912l-3.983,1.963Zm626.933,7.925l-3.938,-2.067c1.363,-2.604 2.696,-5.208 3.992,-7.85l3.979,1.959c-1.304,2.675 -2.658,5.32 -4.033,7.958Zm-618.692,7.8c-1.437,-2.588 -2.85,-5.192 -4.221,-7.808l3.93,-2.067c1.358,2.592 2.75,5.167 4.166,7.717l-3.875,2.158Zm610.021,7.775l-3.829,-2.25c1.492,-2.542 2.95,-5.075 4.383,-7.646l3.879,2.163c-1.45,2.595 -2.925,5.175 -4.433,7.733Zm-600.992,7.525c-1.57,-2.513 -3.112,-5.05 -4.612,-7.592l3.825,-2.262c1.483,2.516 3,5.021 4.546,7.496l-3.759,2.358Zm591.542,7.592l-3.708,-2.455c1.625,-2.441 3.212,-4.908 4.766,-7.391l3.763,2.346c-1.579,2.525 -3.179,5.02 -4.821,7.5Zm-581.75,7.229c-1.696,-2.429 -3.358,-4.879 -4.992,-7.346l3.705,-2.446c1.612,2.438 3.254,4.863 4.929,7.254l-3.642,2.538Zm571.55,7.379l-3.575,-2.629c1.738,-2.367 3.446,-4.75 5.129,-7.154l3.638,2.541c-1.704,2.438 -3.438,4.85 -5.192,7.242Zm-561.021,6.954c-1.812,-2.346 -3.596,-4.717 -5.35,-7.104l3.571,-2.633c1.738,2.366 3.5,4.704 5.296,7.008l-3.517,2.729Zm550.104,7.117l-3.441,-2.813c1.858,-2.266 3.687,-4.554 5.479,-6.875l3.504,2.717c-1.812,2.354 -3.667,4.675 -5.542,6.971Zm-538.854,6.646c-1.929,-2.238 -3.837,-4.509 -5.708,-6.813l3.437,-2.804c1.85,2.271 3.73,4.508 5.642,6.733l-3.371,2.884Zm527.246,6.858l-3.304,-2.988c1.967,-2.17 3.912,-4.366 5.821,-6.587l3.362,2.896c-1.937,2.246 -3.887,4.479 -5.879,6.679Zm-515.317,6.35c-2.041,-2.15 -4.058,-4.325 -6.045,-6.525l3.295,-2.971c1.963,2.175 3.95,4.325 5.967,6.433l-3.217,3.063Zm503.042,6.533l-3.142,-3.133c2.067,-2.079 4.117,-4.167 6.142,-6.288l3.221,3.063c-2.054,2.146 -4.117,4.262 -6.221,6.358Zm-490.454,6.054c-2.154,-2.054 -4.279,-4.116 -6.371,-6.216l3.138,-3.142c2.066,2.075 4.166,4.125 6.291,6.15l-3.058,3.208Zm477.558,6.209l-2.991,-3.296c2.175,-1.967 4.329,-3.95 6.45,-5.975l3.062,3.229c-2.146,2.038 -4.325,4.042 -6.521,6.042Zm-464.354,5.729c-2.254,-1.933 -4.483,-3.9 -6.679,-5.888l2.975,-3.295c2.175,1.966 4.371,3.9 6.596,5.812l-2.892,3.371Zm450.854,5.85l-2.816,-3.438c2.283,-1.845 4.52,-3.729 6.741,-5.637l2.892,3.375c-2.246,1.929 -4.525,3.833 -6.817,5.7Zm-437.062,5.417c-2.35,-1.821 -4.671,-3.663 -6.971,-5.55l2.808,-3.43c2.271,1.846 4.563,3.675 6.879,5.471l-2.716,3.509Zm423,5.47l-2.629,-3.566c2.362,-1.742 4.691,-3.504 7.008,-5.292l2.721,3.508c-2.35,1.821 -4.704,3.596 -7.1,5.35Zm-408.65,5.08c-2.438,-1.696 -4.85,-3.425 -7.246,-5.184l2.633,-3.579c2.363,1.738 4.746,3.446 7.15,5.125l-2.537,3.638Zm394.066,5.083l-2.45,-3.7c2.442,-1.617 4.871,-3.25 7.259,-4.921l2.55,3.638c-2.434,1.695 -4.879,3.358 -7.359,4.983Zm-379.195,4.742c-2.521,-1.575 -5.017,-3.175 -7.5,-4.817l2.445,-3.7c2.45,1.612 4.917,3.2 7.409,4.754l-2.354,3.763Zm364.12,4.67l-2.245,-3.825c2.508,-1.487 5.016,-3 7.491,-4.537l2.354,3.754c-2.516,1.575 -5.037,3.104 -7.6,4.608Zm-348.766,4.388c-2.6,-1.446 -5.179,-2.921 -7.734,-4.425l2.255,-3.825c2.525,1.487 5.07,2.942 7.637,4.371l-2.158,3.879Zm333.25,4.242l-2.059,-3.925c2.584,-1.363 5.163,-2.755 7.709,-4.18l2.158,3.892c-2.583,1.433 -5.192,2.838 -7.808,4.213Zm-317.446,4.041c-2.675,-1.321 -5.321,-2.662 -7.958,-4.041l2.062,-3.93c2.596,1.359 5.213,2.684 7.854,3.98l-1.958,3.991Zm301.508,3.788l-1.846,-4.021c2.655,-1.225 5.288,-2.492 7.9,-3.771l1.963,3.983c-2.654,1.3 -5.325,2.575 -8.017,3.809Zm-285.3,3.658c-2.733,-1.175 -5.454,-2.379 -8.15,-3.625l1.85,-4.021c2.667,1.217 5.354,2.417 8.054,3.579l-1.754,4.067Zm269.009,3.35l-1.655,-4.121c2.717,-1.079 5.421,-2.2 8.096,-3.358l1.75,4.079c-2.712,1.167 -5.45,2.313 -8.191,3.4Zm-252.43,3.275c-2.795,-1.037 -5.575,-2.104 -8.329,-3.212l1.646,-4.117c2.725,1.087 5.467,2.142 8.225,3.175l-1.542,4.154Zm235.738,2.917l-1.442,-4.204c2.779,-0.95 5.542,-1.934 8.279,-2.946l1.55,4.154c-2.783,1.037 -5.575,2.029 -8.387,2.996Zm-218.838,2.858c-2.841,-0.896 -5.675,-1.817 -8.483,-2.783l1.433,-4.192c2.78,0.946 5.571,1.854 8.375,2.738l-1.325,4.237Zm201.859,2.471l-1.225,-4.267c2.816,-0.804 5.621,-1.654 8.416,-2.525l1.325,4.234c-2.829,0.891 -5.666,1.741 -8.516,2.558Zm-184.725,2.412c-2.884,-0.745 -5.75,-1.529 -8.604,-2.333l1.22,-4.279c2.817,0.812 5.646,1.575 8.48,2.308l-1.096,4.304Zm167.483,2.042l-0.992,-4.329c2.846,-0.65 5.696,-1.354 8.53,-2.083l1.108,4.291c-2.858,0.746 -5.746,1.45 -8.646,2.121Zm-150.146,1.95c-2.912,-0.587 -5.808,-1.225 -8.7,-1.892l1,-4.316c2.846,0.65 5.713,1.279 8.588,1.862l-0.888,4.346Zm132.713,1.621l-0.788,-4.371c2.892,-0.512 5.771,-1.071 8.629,-1.654l0.9,4.346c-2.904,0.591 -5.812,1.162 -8.741,1.679Zm-115.184,1.492c-2.941,-0.442 -5.866,-0.93 -8.779,-1.442l0.771,-4.371c2.875,0.508 5.767,0.983 8.671,1.421l-0.663,4.392Zm97.584,1.187l-0.554,-4.4c2.908,-0.371 5.812,-0.767 8.704,-1.212l0.662,4.379c-2.925,0.458 -5.866,0.858 -8.812,1.233Zm-79.921,1.029c-2.958,-0.296 -5.917,-0.625 -8.85,-0.991l0.558,-4.405c2.892,0.355 5.809,0.696 8.734,0.984l-0.442,4.412Zm62.221,0.754l-0.346,-4.42c2.929,-0.221 5.854,-0.484 8.758,-0.771l0.442,4.416c-2.946,0.292 -5.896,0.55 -8.854,0.775Zm-44.479,0.58c-2.967,-0.15 -5.925,-0.334 -8.884,-0.563l0.342,-4.421c2.908,0.221 5.837,0.404 8.762,0.542l-0.22,4.442Zm26.687,0.316l-0.104,-4.433c2.929,-0.075 5.858,-0.183 8.775,-0.342l0.229,4.446c-2.958,0.142 -5.925,0.254 -8.9,0.329Zm-8.892,0.113l-0.141,-0c-2.925,-0 -5.846,-0.042 -8.759,-0.104l0.109,-4.434c2.875,0.067 5.758,0.1 8.65,0.1l0.141,4.438Z" style="fill:#e83c3f;"/><g><rect x="109.083" y="278.612" width="407.812" height="3.646" style="fill:#d41116;"/><rect x="109.083" y="962.808" width="407.812" height="3.65" style="fill:#d41116;"/><path d="M127.49,937.609l13.841,19.475l14.021,-19.337l-12.412,-0.059l-0,-633.012l12.587,-0.063l-14.021,-19.333l-13.841,19.471l11.495,-0.054l0,632.97l-11.67,-0.058Z" style="fill:#d41116;fill-rule:nonzero;"/></g><g transform="matrix(82.8431,0,0,82.8431,107.683,617.161)"></g><text x="52.428px" y="617.161px" style="font-family:'ArialMT', 'Arial', sans-serif;font-size:82.843px;fill:#d41116;">A</text></g></g></svg>